<svg width="480" height="200" viewBox="0 0 480 200" fill="none" xmlns="http://www.w3.org/2000/svg">
<g clip-path="url(#clip0_1108_4058)">
<path d="M77.44 4.00003C77.4163 3.23954 77.1836 2.50028 76.7672 1.86344C76.3509 1.22659 75.7671 0.716797 75.08 0.390033C74.0356 -0.0744013 72.8501 -0.108064 71.781 0.296356C70.7119 0.700776 69.8455 1.51062 69.37 2.55003C69.1635 3.00823 69.0382 3.49889 69 4.00003V11.6H77.54V4.00003H77.44Z" fill="#5454A0"/>
<path d="M68.8696 196C68.8933 196.76 69.1261 197.5 69.5424 198.137C69.9587 198.773 70.5425 199.283 71.2296 199.61C72.274 200.074 73.4595 200.108 74.5286 199.704C75.5977 199.299 76.4641 198.489 76.9396 197.45C77.1554 196.993 77.2939 196.503 77.3496 196V188.4H68.8496V196H68.8696Z" fill="#5454A0"/>
<path d="M77.08 192.94C59.08 192.94 43.1567 189.273 29.31 181.94C15.4633 174.607 5.69333 164.147 0 150.56L15.27 140.31C19.37 151.887 27.4984 161.602 38.17 167.68C49.19 174.16 62.6267 177.397 78.48 177.39C94.35 177.39 106.37 174.33 115.23 168.21C124.09 162.09 128.54 153.96 128.54 143.85C128.665 137.292 126.332 130.925 122 126C117.62 120.927 109.397 117.1 97.33 114.52L55.77 105.69C38.71 102.15 26.5767 96.4367 19.37 88.55C12.1633 80.6634 8.54 71.08 8.5 59.8C8.42628 50.614 11.4173 41.6655 17 34.37C22.6933 26.8434 30.5633 20.7834 40.61 16.19C50.6567 11.5967 62.4533 9.30005 76 9.30005C93.7533 9.30005 108.42 12.7734 120 19.72C131.58 26.6667 139.753 37.0934 144.52 51L129.6 60.51C126.04 48.0434 119.467 38.98 109.88 33.32C100.293 27.66 89 24.8367 76 24.85C66.06 24.85 57.3633 26.3234 49.91 29.2701C42.4567 32.2167 36.6533 36.2167 32.5 41.2701C28.4152 46.1717 26.2132 52.3699 26.29 58.75C26.3414 65.5874 28.8631 72.1757 33.39 77.3C38.1167 82.8334 46.52 86.8934 58.6 89.48L101.21 98.66C118.023 102.2 129.743 107.553 136.37 114.72C142.997 121.887 146.31 130.78 146.31 141.4C146.31 152.007 143.47 161.187 137.79 168.94C132.12 176.7 124.06 182.67 113.64 186.78C103.22 190.89 91 193 77 193L77.08 192.94Z" fill="#5454A0"/>
<path d="M340.77 8.54C345.374 8.47467 349.964 9.06732 354.4 10.3C357.881 11.187 361.096 12.9024 363.77 15.3L359.77 25.38C357.435 23.4388 354.736 21.9837 351.83 21.1C348.574 20.2037 345.207 19.7794 341.83 19.84C332.564 19.84 325.374 22.19 320.26 26.89C315.147 31.59 312.587 38.5633 312.58 47.81V193.68H298.46V46.57C298.407 41.2599 299.318 35.9842 301.15 31C302.857 26.4127 305.634 22.2988 309.25 19C313.133 15.5589 317.675 12.9426 322.6 11.31C328.458 9.36936 334.601 8.43284 340.77 8.54Z" fill="#5454A0"/>
<path d="M368.13 117.88C368.04 119.72 367.98 121.59 367.98 123.5C367.98 136.12 370.203 147.04 374.65 156.26C378.661 164.97 385.183 172.283 393.38 177.26C401.42 182.06 410.753 184.463 421.38 184.47C431.99 184.47 441.78 182.12 449.63 177.42C457.417 172.778 463.752 166.052 467.92 158L479.29 164.5C475.977 171.161 471.335 177.073 465.65 181.87C459.845 186.733 453.208 190.503 446.06 193C438.208 195.732 429.943 197.085 421.63 197C408.576 197 396.936 194.08 386.71 188.24C376.417 182.333 368.075 173.546 362.71 162.96C356.943 151.953 354.06 138.823 354.06 123.57C354.06 121.68 354.06 119.82 354.19 117.99M354.19 106.48C354.856 93.5868 357.696 82.3168 362.71 72.6701C368.483 61.6501 376.29 53.2235 386.13 47.3901C395.97 41.5568 407.233 38.6368 419.92 38.6301C432.62 38.6301 443.77 41.4601 452.87 47.1001C455.856 48.9568 458.662 51.0894 461.25 53.4701C466.839 58.054 471.183 63.973 473.88 70.6801C481.44 89.6101 479.27 97.6801 479.88 106.57C479.88 106.65 479.77 106.57 478.13 106.57H466.85C467.08 100.11 467.08 79.6901 454.42 65.4801C451.931 62.6796 449.102 60.2005 446 58.1001C438.8 53.3668 430.01 51.0001 419.63 51.0001C409.27 51.0001 400.42 53.4101 392.63 58.2101C384.84 63.0101 378.83 70.0001 374.48 79.1201C370.359 87.6254 368.18 96.9398 368.1 106.39" fill="#5454A0"/>
<path d="M479.94 110.46C463.94 110.46 276.13 110.4 265.44 110.36C266.06 98.64 266.44 88.76 262.44 78.22C260.33 72.52 257.75 65.64 251.23 59.27C234.69 43.11 209.33 46.38 202.15 47.27C193.354 48.3106 184.854 51.0985 177.15 55.47C161.15 64.77 155.98 80.29 155.38 81.84C155.38 81.92 155.8 82.11 156.5 82.55C157.2 82.99 157.19 82.97 157.8 83.37C158.8 84.02 158.94 84.06 163.65 87.06L167.04 89.2C172.54 74.94 175.77 71.02 189.61 63.52C197.42 59.3 205.61 59.12 211.77 59.28C217.54 59.41 227.13 59.64 236 66.16C240.991 69.9116 244.979 74.8373 247.61 80.5C248.131 81.5953 248.595 82.7168 249 83.86C250.11 87.6141 250.636 91.5162 250.56 95.43C250.63 100.69 250.75 105.43 250.85 110.35C242.71 110.35 237.1 110.27 233.35 110.21C232.04 110.21 229.71 110.15 226.56 110.21C226.56 110.21 221.92 110.29 217.63 110.56C173.38 113.39 160 134.48 160 134.48C157.46 138.48 152.54 148.04 154.61 164.18C155.826 169.95 158.397 175.349 162.11 179.93C171.04 190.45 184.98 193.09 194.67 193.74C210.67 194.74 230.31 189.46 243.08 178.08C247.02 174.56 250 169.86 249.96 168.52C249.96 167.77 249.96 168.23 250.11 169.4C250.69 174.138 252.173 178.721 254.48 182.9C256.384 185.449 258.736 187.631 261.42 189.34C271.9 195.96 287.42 194.94 288.6 191.12C288.641 190.95 288.658 190.775 288.65 190.6C288.65 184.92 288.58 178.9 288.44 178.96C286.54 179.76 280.83 181.96 275.02 180.74C264.92 178.63 265.02 169.95 264.94 168.86C264.79 163.76 264.86 159.74 264.85 156.28C264.85 148.53 264.85 141.19 264.85 128.84C264.85 127.69 264.85 126.66 264.9 125.55C271.75 125.55 392.12 124.71 479.83 124.99H479.89C480.02 106.54 480.02 120.12 480.02 110.48L479.94 110.46ZM237.12 169.07C234.434 171.592 231.448 173.775 228.23 175.57C213.52 183.8 190.96 185.29 177.23 174.04C174.89 172.13 170.23 168.21 168.73 161.75C166.87 153.75 170.89 146.81 171.83 145.23C181.71 128.23 209.83 126.33 228.04 125.09C234.838 124.638 241.658 124.611 248.46 125.01C249.33 125.07 250.16 125.11 250.96 125.15C250.96 131.15 250.75 137.98 250.39 146.26C250.14 151.63 245.77 161.02 237.17 169.09L237.12 169.07Z" fill="#5454A0"/>
<path d="M429.27 84.4102C429.27 82.2884 428.427 80.2536 426.926 78.7533C425.426 77.253 423.391 76.4102 421.27 76.4102C419.148 76.4102 417.113 77.253 415.613 78.7533C414.112 80.2536 413.27 82.2884 413.27 84.4102C413.272 85.5835 413.538 86.7412 414.047 87.7985C414.556 88.8558 415.295 89.7857 416.21 90.5201V101.11H426.29V90.5201C427.205 89.7857 427.944 88.8558 428.452 87.7985C428.961 86.7412 429.227 85.5835 429.23 84.4102H429.27Z" fill="#5454A0"/>
</g>
<defs>
<clipPath id="clip0_1108_4058">
<rect width="480" height="200" fill="white"/>
</clipPath>
</defs>
</svg>
