<svg width="80" height="40" viewBox="0 0 80 40" fill="none" xmlns="http://www.w3.org/2000/svg">
<g clip-path="url(#clip0_1119_4130)">
<path d="M12.91 0.799967C12.9089 0.656072 12.8717 0.514757 12.8018 0.388967C12.7319 0.263176 12.6316 0.156932 12.51 0.0799672C12.4207 0.0349695 12.3224 0.0105318 12.2225 0.0084465C12.1225 0.00636118 12.0233 0.0266811 11.9322 0.0679159C11.8411 0.109151 11.7604 0.170255 11.696 0.246746C11.6316 0.323238 11.5851 0.413177 11.56 0.509967C11.5223 0.60259 11.4987 0.700344 11.49 0.799967V2.31997H12.91V0.799967Z" fill="white"/>
<path d="M11.48 39.2002C11.4772 39.3437 11.5116 39.4854 11.58 39.6116C11.6484 39.7378 11.7483 39.8441 11.87 39.9202C11.9611 39.9751 12.064 40.0074 12.1701 40.0147C12.2762 40.0219 12.3826 40.0037 12.4803 39.9617C12.578 39.9197 12.6643 39.855 12.7321 39.773C12.7998 39.691 12.8471 39.5941 12.87 39.4902C12.9077 39.3976 12.9313 39.2998 12.94 39.2002V37.6802H11.47V39.2002H11.48Z" fill="white"/>
<path d="M12.85 38.5898C10.0278 38.648 7.2491 37.8873 4.85 36.3998C2.55449 34.9272 0.840507 32.7043 0 30.1098L2.54 28.0598C3.15346 30.2675 4.50082 32.2004 6.36 33.5398C8.34167 34.874 10.6921 35.5526 13.08 35.4798C15.2772 35.6154 17.4507 34.963 19.21 33.6398C19.9299 33.0542 20.5041 32.3097 20.8876 31.4646C21.2711 30.6196 21.4533 29.6972 21.42 28.7698C21.4519 27.4964 21.0693 26.2471 20.33 25.2098C19.2606 23.9939 17.8062 23.182 16.21 22.9098L9.29 21.1398C6.45 20.4398 4.42 19.2998 3.22 17.7198C2.00148 16.0659 1.36819 14.0534 1.42 11.9998C1.38689 10.1884 1.88017 8.40633 2.84 6.86979C3.8153 5.34134 5.16908 4.09091 6.77 3.23979C8.5842 2.28684 10.6113 1.8119 12.66 1.85979C15.2651 1.75904 17.835 2.48731 20 3.93979C22.0432 5.48924 23.4881 7.6972 24.09 10.1898L21.6 12.0998C21.2159 9.94121 20.0433 8.00239 18.31 6.65979C16.6471 5.52822 14.6707 4.94756 12.66 4.99979C11.1624 4.9636 9.67578 5.26434 8.31 5.87979C7.14579 6.40556 6.14422 7.23445 5.41 8.27979C4.72764 9.31723 4.37872 10.5385 4.41 11.7798C4.4081 13.1106 4.82437 14.4084 5.6 15.4898C6.67071 16.7703 8.15727 17.6339 9.8 17.9298L16.9 19.7598C19.7 20.4698 21.66 21.5398 22.76 22.9698C23.9012 24.5109 24.4864 26.3933 24.42 28.3098C24.4594 30.2323 23.968 32.1284 23 33.7898C22.0465 35.347 20.6552 36.5888 19 37.3598C17.0865 38.2169 15.0061 38.637 12.91 38.5898H12.85Z" fill="white"/>
<path d="M56.7899 1.70997C57.5641 1.69975 58.3345 1.81802 59.0699 2.05997C59.6677 2.25273 60.2052 2.59729 60.6299 3.05997L59.9599 5.05997C59.5866 4.68211 59.1364 4.38883 58.6399 4.19997C58.1077 4.04513 57.5538 3.97759 56.9999 3.99997C56.3352 3.96113 55.6699 4.06709 55.05 4.31053C54.4302 4.55398 53.8706 4.9291 53.4099 5.40997C52.4765 6.59858 52.0201 8.09265 52.1299 9.59997V38.74H49.7399V9.30997C49.7277 8.25295 49.8795 7.20044 50.1899 6.18997C50.4585 5.30363 50.9195 4.48753 51.5399 3.79997C52.1593 3.12695 52.9212 2.6008 53.7699 2.25997C54.7229 1.87605 55.7427 1.68568 56.7699 1.69997L56.7899 1.70997Z" fill="white"/>
<path d="M61.36 23.5798C61.36 23.9398 61.36 24.3198 61.36 24.6998C61.3094 26.9339 61.6861 29.1571 62.47 31.2498C63.0804 32.9256 64.1643 34.3881 65.59 35.4598C66.9529 36.4263 68.5895 36.931 70.26 36.8998C71.9391 36.9358 73.5869 36.4425 74.97 35.4898C76.3016 34.4823 77.3378 33.1353 77.97 31.5898L79.86 32.8898C79.3355 34.1856 78.5646 35.3675 77.59 36.3698C75.8769 38.0628 73.6319 39.1128 71.2343 39.3424C68.8367 39.5719 66.4333 38.967 64.43 37.6298C62.6428 36.3619 61.255 34.6098 60.43 32.5798C59.4169 30.0793 58.9301 27.3968 59 24.6998C59 24.3198 59 23.9498 59 23.5798M59 21.2798C59.0531 18.9582 59.5345 16.6665 60.42 14.5198C61.2323 12.5051 62.5854 10.754 64.33 9.45978C65.9847 8.286 67.9716 7.67273 70 7.70978C71.9666 7.66121 73.895 8.25834 75.49 9.40978C75.9963 9.7873 76.4651 10.2126 76.89 10.6798C77.8529 11.6454 78.5757 12.8237 79 14.1198C79.7769 16.4301 80.116 18.8651 80 21.2998C80 21.2998 80 21.2998 79.71 21.2998H77.81C77.81 20.0098 77.81 15.9198 75.74 13.0798C75.3365 12.5362 74.8661 12.0457 74.34 11.6198C73.0765 10.6618 71.5252 10.1611 69.94 10.1998C68.322 10.1684 66.7392 10.6749 65.44 11.6398C64.0719 12.7281 63.0332 14.1753 62.44 15.8198C61.7494 17.5578 61.3899 19.4096 61.38 21.2798" fill="white"/>
<path d="M80.0001 22.0901H44.2501C44.4697 19.9346 44.3038 17.7573 43.7601 15.6601C43.4068 14.2805 42.7699 12.9898 41.8901 11.8701C39.1301 8.64006 34.8901 9.30006 33.7101 9.48006C32.2163 9.70163 30.7932 10.2627 29.5501 11.1201C27.8087 12.4443 26.5367 14.291 25.9201 16.3901C25.9201 16.3901 25.9901 16.4501 26.1101 16.5401L26.3201 16.7001L27.3201 17.4401L27.8801 17.8701C28.8001 15.0101 29.3401 14.2301 31.6501 12.7301C32.7606 12.067 34.0514 11.7696 35.3401 11.8801C36.7985 11.8278 38.2242 12.3196 39.3401 13.2601C40.1977 14.0538 40.8585 15.0364 41.2701 16.1301C41.3552 16.346 41.4287 16.5663 41.4901 16.7901C41.6771 17.5488 41.7645 18.3287 41.7501 19.1101C41.7501 20.1601 41.7501 21.1101 41.8001 22.1101C40.4401 22.1101 39.5101 22.1101 38.8801 22.1101H37.7601C37.7601 22.1101 36.9901 22.1101 36.2701 22.1801C28.9001 22.7501 26.6701 26.9701 26.6701 26.9701C25.7763 28.8135 25.4625 30.8846 25.7701 32.9101C25.9682 34.0123 26.3865 35.0632 27.0001 36.0001C27.6437 36.8342 28.4649 37.5146 29.4041 37.992C30.3433 38.4693 31.3769 38.7317 32.4301 38.7601C33.9209 38.8471 35.4131 38.6127 36.8055 38.0727C38.1978 37.5326 39.4578 36.6996 40.5001 35.6301C41.0307 35.0924 41.422 34.4333 41.6401 33.7101C41.6401 33.5601 41.6401 33.6601 41.6401 33.8901C41.7321 34.8243 41.9788 35.7367 42.3701 36.5901C42.6722 37.0861 43.0619 37.5232 43.5201 37.8801C45.2701 39.2001 47.8601 39.0001 48.0501 38.2301C48.0555 38.197 48.0555 38.1632 48.0501 38.1301C48.0501 36.9901 48.0501 35.7901 48.0501 35.8001C47.3661 36.1714 46.576 36.2984 45.8101 36.1601C45.3032 36.0101 44.8616 35.6937 44.5568 35.2618C44.252 34.8299 44.1016 34.3079 44.1301 33.7801C44.1301 32.7801 44.1301 31.9601 44.1301 31.2701V25.7701C44.1301 25.5401 44.1301 25.3301 44.1301 25.1101C45.2701 25.1101 65.3301 24.9401 79.9501 25.0001C79.9501 21.3101 79.9501 24.0001 79.9501 22.1001L80.0001 22.0901ZM39.5201 33.8101C39.076 34.3116 38.5644 34.7491 38.0001 35.1101C35.5501 36.7601 31.7901 37.1101 29.4901 34.8101C28.7738 34.1581 28.2806 33.2976 28.0801 32.3501C27.8886 31.2239 28.0676 30.0659 28.5901 29.0501C30.2401 25.6501 34.9201 25.2701 37.9601 25.0501C39.0918 24.9653 40.2283 24.9653 41.3601 25.0501H41.7801C41.7801 26.2601 41.7801 27.6201 41.6801 29.2701C41.4396 30.985 40.6706 32.5824 39.4801 33.8401L39.5201 33.8101Z" fill="white"/>
<path d="M71.5401 16.8799C71.5739 16.6859 71.5648 16.4869 71.5135 16.2968C71.4623 16.1067 71.37 15.9301 71.2433 15.7794C71.1166 15.6288 70.9585 15.5076 70.78 15.4245C70.6015 15.3414 70.407 15.2983 70.2101 15.2983C70.0132 15.2983 69.8187 15.3414 69.6402 15.4245C69.4618 15.5076 69.3036 15.6288 69.1769 15.7794C69.0502 15.9301 68.958 16.1067 68.9067 16.2968C68.8554 16.4869 68.8463 16.6859 68.8801 16.8799C68.8774 17.1063 68.9203 17.331 69.0062 17.5406C69.0921 17.7502 69.2193 17.9404 69.3801 18.0999V20.2199H71.0501V18.0999C71.2096 17.9399 71.3352 17.7494 71.4194 17.5398C71.5036 17.3302 71.5447 17.1057 71.5401 16.8799Z" fill="white"/>
</g>
<defs>
<clipPath id="clip0_1119_4130">
<rect width="80" height="40" fill="white"/>
</clipPath>
</defs>
</svg>
