<svg width="480" height="200" viewBox="0 0 480 200" fill="none" xmlns="http://www.w3.org/2000/svg">
<g clip-path="url(#clip0_1119_4032)">
<path d="M77.44 4.00003C77.4163 3.23954 77.1836 2.50028 76.7672 1.86344C76.3509 1.22659 75.7671 0.716797 75.08 0.390033C74.0356 -0.0744013 72.8501 -0.108064 71.781 0.296356C70.7119 0.700776 69.8455 1.51062 69.37 2.55003C69.1635 3.00823 69.0382 3.49889 69 4.00003V11.6H77.54V4.00003H77.44Z" fill="white"/>
<path d="M68.8701 196C68.8938 196.76 69.1265 197.5 69.5429 198.137C69.9592 198.773 70.543 199.283 71.2301 199.61C72.2745 200.074 73.46 200.108 74.5291 199.704C75.5982 199.299 76.4646 198.489 76.9401 197.45C77.1559 196.993 77.2944 196.503 77.3501 196V188.4H68.8501V196H68.8701Z" fill="white"/>
<path d="M77.08 192.94C59.08 192.94 43.1567 189.273 29.31 181.94C15.4633 174.606 5.69333 164.146 0 150.56L15.27 140.31C19.37 151.886 27.4984 161.601 38.17 167.68C49.19 174.16 62.6267 177.396 78.48 177.39C94.35 177.39 106.37 174.33 115.23 168.21C124.09 162.09 128.54 153.96 128.54 143.85C128.665 137.292 126.332 130.925 122 126C117.62 120.926 109.397 117.1 97.33 114.52L55.77 105.69C38.71 102.15 26.5767 96.4365 19.37 88.5498C12.1633 80.6631 8.54 71.0798 8.5 59.7998C8.42628 50.6137 11.4173 41.6652 17 34.3698C22.6933 26.8431 30.5633 20.7831 40.61 16.1898C50.6567 11.5965 62.4533 9.2998 76 9.2998C93.7533 9.2998 108.42 12.7731 120 19.7198C131.58 26.6665 139.753 37.0931 144.52 50.9998L129.6 60.5098C126.04 48.0431 119.467 38.9798 109.88 33.3198C100.293 27.6598 89 24.8365 76 24.8498C66.06 24.8498 57.3633 26.3231 49.91 29.2698C42.4567 32.2165 36.6533 36.2165 32.5 41.2698C28.4152 46.1714 26.2132 52.3697 26.29 58.7498C26.3414 65.5872 28.8631 72.1754 33.39 77.2998C38.1167 82.8331 46.52 86.8931 58.6 89.4798L101.21 98.6598C118.023 102.2 129.743 107.553 136.37 114.72C142.997 121.886 146.31 130.78 146.31 141.4C146.31 152.006 143.47 161.186 137.79 168.94C132.12 176.7 124.06 182.67 113.64 186.78C103.22 190.89 91 193 77 193L77.08 192.94Z" fill="white"/>
<path d="M340.77 8.54C345.374 8.47467 349.964 9.06732 354.4 10.3C357.881 11.187 361.095 12.9024 363.77 15.3L359.77 25.38C357.435 23.4388 354.735 21.9837 351.83 21.1C348.574 20.2037 345.206 19.7794 341.83 19.84C332.563 19.84 325.373 22.19 320.26 26.89C315.147 31.59 312.587 38.5633 312.58 47.81V193.68H298.46V46.57C298.406 41.2599 299.318 35.9842 301.15 31C302.857 26.4127 305.634 22.2988 309.25 19C313.133 15.5589 317.675 12.9426 322.6 11.31C328.457 9.36936 334.601 8.43284 340.77 8.54Z" fill="white"/>
<path d="M368.13 117.88C368.04 119.72 367.98 121.59 367.98 123.5C367.98 136.12 370.203 147.04 374.65 156.26C378.662 164.97 385.184 172.282 393.38 177.26C401.42 182.06 410.753 184.463 421.38 184.47C431.99 184.47 441.78 182.12 449.63 177.42C457.418 172.778 463.753 166.052 467.92 158L479.29 164.5C475.978 171.161 471.336 177.073 465.65 181.87C459.846 186.732 453.209 190.503 446.06 193C438.208 195.731 429.943 197.085 421.63 197C408.577 197 396.937 194.08 386.71 188.24C376.417 182.333 368.075 173.546 362.71 162.96C356.943 151.953 354.06 138.823 354.06 123.57C354.06 121.68 354.06 119.82 354.19 117.99M354.19 106.48C354.857 93.5866 357.697 82.3165 362.71 72.6699C368.483 61.6499 376.29 53.2232 386.13 47.3899C395.97 41.5565 407.233 38.6365 419.92 38.6299C432.62 38.6299 443.77 41.4599 452.87 47.0999C455.856 48.9565 458.662 51.0892 461.25 53.4699C466.84 58.0537 471.184 63.9728 473.88 70.6799C481.44 89.6099 479.27 97.6799 479.88 106.57C479.88 106.65 479.77 106.57 478.13 106.57H466.85C467.08 100.11 467.08 79.6899 454.42 65.4799C451.931 62.6794 449.103 60.2003 446 58.0999C438.8 53.3665 430.01 50.9999 419.63 50.9999C409.27 50.9999 400.42 53.4099 392.63 58.2099C384.84 63.0099 378.83 69.9999 374.48 79.1199C370.36 87.6252 368.181 96.9395 368.1 106.39" fill="white"/>
<path d="M479.94 110.46C463.94 110.46 276.13 110.4 265.44 110.36C266.06 98.64 266.44 88.76 262.44 78.22C260.33 72.52 257.75 65.64 251.23 59.27C234.69 43.11 209.33 46.38 202.15 47.27C193.353 48.3106 184.854 51.0985 177.15 55.47C161.15 64.77 155.98 80.29 155.38 81.84C155.38 81.92 155.8 82.11 156.5 82.55C157.2 82.99 157.19 82.97 157.8 83.37C158.8 84.02 158.94 84.06 163.65 87.06L167.04 89.2C172.54 74.94 175.77 71.02 189.61 63.52C197.42 59.3 205.61 59.12 211.77 59.28C217.54 59.41 227.13 59.64 236 66.16C240.991 69.9116 244.979 74.8373 247.61 80.5C248.131 81.5953 248.595 82.7168 249 83.86C250.109 87.6141 250.635 91.5162 250.56 95.43C250.63 100.69 250.75 105.43 250.85 110.35C242.71 110.35 237.1 110.27 233.35 110.21C232.04 110.21 229.71 110.15 226.56 110.21C226.56 110.21 221.92 110.29 217.63 110.56C173.38 113.39 160 134.48 160 134.48C157.46 138.48 152.54 148.04 154.61 164.18C155.826 169.95 158.397 175.349 162.11 179.93C171.04 190.45 184.98 193.09 194.67 193.74C210.67 194.74 230.31 189.46 243.08 178.08C247.02 174.56 250 169.86 249.96 168.52C249.96 167.77 249.96 168.23 250.11 169.4C250.69 174.138 252.173 178.721 254.48 182.9C256.384 185.449 258.736 187.631 261.42 189.34C271.9 195.96 287.42 194.94 288.6 191.12C288.641 190.95 288.658 190.775 288.65 190.6C288.65 184.92 288.58 178.9 288.44 178.96C286.54 179.76 280.83 181.96 275.02 180.74C264.92 178.63 265.02 169.95 264.94 168.86C264.79 163.76 264.86 159.74 264.85 156.28C264.85 148.53 264.85 141.19 264.85 128.84C264.85 127.69 264.85 126.66 264.9 125.55C271.75 125.55 392.12 124.71 479.83 124.99H479.89C480.02 106.54 480.02 120.12 480.02 110.48L479.94 110.46ZM237.12 169.07C234.433 171.592 231.448 173.775 228.23 175.57C213.52 183.8 190.96 185.29 177.23 174.04C174.89 172.13 170.23 168.21 168.73 161.75C166.87 153.75 170.89 146.81 171.83 145.23C181.71 128.23 209.83 126.33 228.04 125.09C234.838 124.638 241.658 124.611 248.46 125.01C249.33 125.07 250.16 125.11 250.96 125.15C250.96 131.15 250.75 137.98 250.39 146.26C250.14 151.63 245.77 161.02 237.17 169.09L237.12 169.07Z" fill="white"/>
<path d="M429.27 84.4102C429.27 82.2884 428.427 80.2536 426.927 78.7533C425.427 77.253 423.392 76.4102 421.27 76.4102C419.148 76.4102 417.113 77.253 415.613 78.7533C414.113 80.2536 413.27 82.2884 413.27 84.4102C413.273 85.5835 413.539 86.7412 414.047 87.7985C414.556 88.8558 415.295 89.7857 416.21 90.5201V101.11H426.29V90.5201C427.205 89.7857 427.944 88.8558 428.453 87.7985C428.961 86.7412 429.227 85.5835 429.23 84.4102H429.27Z" fill="white"/>
</g>
<defs>
<clipPath id="clip0_1119_4032">
<rect width="480" height="200" fill="white"/>
</clipPath>
</defs>
</svg>
