<svg width="81" height="41" viewBox="0 0 81 41" fill="none" xmlns="http://www.w3.org/2000/svg">
<path d="M12.9102 0.791666C12.9091 0.647772 12.8719 0.506456 12.802 0.380666C12.7322 0.254875 12.6318 0.148631 12.5102 0.0716664C12.4209 0.0266687 12.3227 0.00223103 12.2227 0.000145715C12.1227 -0.0019396 12.0236 0.0183803 11.9325 0.0596152C11.8414 0.10085 11.7606 0.161954 11.6962 0.238446C11.6318 0.314937 11.5854 0.404876 11.5602 0.501666C11.5225 0.594289 11.4989 0.692043 11.4902 0.791666V2.31167H12.9102V0.791666Z" fill="#5454A0"/>
<path d="M11.4797 39.1916C11.4769 39.3351 11.5114 39.4769 11.5798 39.6031C11.6481 39.7293 11.748 39.8356 11.8697 39.9116C11.9609 39.9665 12.0637 39.9989 12.1699 40.0061C12.276 40.0134 12.3823 39.9952 12.48 39.9532C12.5778 39.9112 12.6641 39.8465 12.7318 39.7645C12.7996 39.6825 12.8469 39.5855 12.8697 39.4816C12.9074 39.389 12.931 39.2913 12.9397 39.1916V37.6716H11.4697V39.1916H11.4797Z" fill="#5454A0"/>
<path d="M12.85 38.5817C10.0278 38.6399 7.2491 37.8793 4.85 36.3917C2.55449 34.9191 0.840507 32.6962 0 30.1017L2.54 28.0517C3.15346 30.2595 4.50082 32.1924 6.36 33.5317C8.34167 34.866 10.6921 35.5445 13.08 35.4717C15.2772 35.6074 17.4507 34.955 19.21 33.6317C19.9299 33.0462 20.5041 32.3016 20.8876 31.4566C21.2711 30.6116 21.4533 29.6891 21.42 28.7617C21.4519 27.4883 21.0693 26.239 20.33 25.2017C19.2606 23.9859 17.8062 23.174 16.21 22.9017L9.29 21.1317C6.45 20.4317 4.42 19.2917 3.22 17.7117C2.00148 16.0578 1.36819 14.0454 1.42 11.9917C1.38689 10.1803 1.88017 8.39827 2.84 6.86174C3.8153 5.33329 5.16908 4.08285 6.77 3.23174C8.5842 2.27879 10.6113 1.80385 12.66 1.85174C15.2651 1.75099 17.835 2.47925 20 3.93174C22.0432 5.48118 23.4881 7.68915 24.09 10.1817L21.6 12.0917C21.2159 9.93316 20.0433 7.99433 18.31 6.65174C16.6471 5.52017 14.6707 4.93951 12.66 4.99174C11.1624 4.95554 9.67578 5.25628 8.31 5.87174C7.14579 6.39751 6.14422 7.2264 5.41 8.27174C4.72764 9.30917 4.37872 10.5304 4.41 11.7717C4.4081 13.1025 4.82437 14.4003 5.6 15.4817C6.67071 16.7622 8.15727 17.6259 9.8 17.9217L16.9 19.7517C19.7 20.4617 21.66 21.5317 22.76 22.9617C23.9012 24.5028 24.4864 26.3852 24.42 28.3017C24.4594 30.2242 23.968 32.1203 23 33.7817C22.0465 35.339 20.6552 36.5807 19 37.3517C17.0865 38.2088 15.0061 38.629 12.91 38.5817H12.85Z" fill="#5454A0"/>
<path d="M56.7899 1.70167C57.5641 1.69145 58.3345 1.80972 59.0699 2.05167C59.6677 2.24443 60.2052 2.58899 60.6299 3.05167L59.9599 5.05167C59.5866 4.67381 59.1364 4.38053 58.6399 4.19167C58.1077 4.03683 57.5538 3.96929 56.9999 3.99167C56.3352 3.95283 55.6699 4.05879 55.05 4.30223C54.4302 4.54568 53.8706 4.92079 53.4099 5.40167C52.4765 6.59028 52.0201 8.08435 52.1299 9.59167V38.7317H49.7399V9.30167C49.7277 8.24465 49.8795 7.19213 50.1899 6.18167C50.4585 5.29533 50.9195 4.47923 51.5399 3.79167C52.1593 3.11865 52.9212 2.5925 53.7699 2.25167C54.7229 1.86775 55.7427 1.67738 56.7699 1.69167L56.7899 1.70167Z" fill="#5454A0"/>
<path d="M61.3598 23.5717C61.3598 23.9317 61.3598 24.3117 61.3598 24.6917C61.3091 26.9258 61.6859 29.149 62.4698 31.2417C63.0802 32.9175 64.1641 34.3801 65.5898 35.4517C66.9526 36.4183 68.5892 36.9229 70.2598 36.8917C71.9388 36.9278 73.5867 36.4345 74.9698 35.4817C76.3014 34.4743 77.3376 33.1272 77.9698 31.5817L79.8598 32.8817C79.3352 34.1776 78.5643 35.3594 77.5898 36.3617C75.8766 38.0548 73.6317 39.1048 71.234 39.3343C68.8364 39.5639 66.433 38.959 64.4298 37.6217C62.6425 36.3539 61.2547 34.6018 60.4298 32.5717C59.4166 30.0712 58.9298 27.3887 58.9998 24.6917C58.9998 24.3117 58.9998 23.9417 58.9998 23.5717M58.9998 21.2717C59.0529 18.9502 59.5343 16.6584 60.4198 14.5117C61.2321 12.4971 62.5852 10.746 64.3298 9.45172C65.9844 8.27794 67.9714 7.66468 69.9998 7.70172C71.9664 7.65316 73.8947 8.25028 75.4898 9.40172C75.996 9.77924 76.4648 10.2045 76.8898 10.6717C77.8527 11.6374 78.5754 12.8157 78.9998 14.1117C79.7766 16.4221 80.1158 18.857 79.9998 21.2917C79.9998 21.2917 79.9998 21.2917 79.7098 21.2917H77.8098C77.8098 20.0017 77.8098 15.9117 75.7398 13.0717C75.3362 12.5282 74.8659 12.0377 74.3398 11.6117C73.0762 10.6537 71.5249 10.153 69.9398 10.1917C68.3217 10.1604 66.739 10.6668 65.4398 11.6317C64.0716 12.72 63.033 14.1672 62.4398 15.8117C61.7491 17.5497 61.3896 19.4016 61.3798 21.2717" fill="#5454A0"/>
<path d="M80.0001 22.0818H44.2501C44.4697 19.9263 44.3038 17.749 43.7601 15.6518C43.4068 14.2722 42.7699 12.9815 41.8901 11.8618C39.1301 8.63176 34.8901 9.29176 33.7101 9.47176C32.2163 9.69333 30.7932 10.2544 29.5501 11.1118C27.8087 12.436 26.5367 14.2827 25.9201 16.3818C25.9201 16.3818 25.9901 16.4418 26.1101 16.5318L26.3201 16.6918L27.3201 17.4318L27.8801 17.8618C28.8001 15.0018 29.3401 14.2218 31.6501 12.7218C32.7606 12.0587 34.0514 11.7613 35.3401 11.8718C36.7985 11.8195 38.2242 12.3113 39.3401 13.2518C40.1977 14.0455 40.8585 15.0281 41.2701 16.1218C41.3552 16.3377 41.4287 16.558 41.4901 16.7818C41.6771 17.5405 41.7645 18.3204 41.7501 19.1018C41.7501 20.1518 41.7501 21.1018 41.8001 22.1018C40.4401 22.1018 39.5101 22.1018 38.8801 22.1018H37.7601C37.7601 22.1018 36.9901 22.1018 36.2701 22.1718C28.9001 22.7418 26.6701 26.9618 26.6701 26.9618C25.7763 28.8052 25.4625 30.8763 25.7701 32.9018C25.9682 34.004 26.3865 35.0549 27.0001 35.9918C27.6437 36.8259 28.4649 37.5063 29.4041 37.9837C30.3433 38.461 31.3769 38.7234 32.4301 38.7518C33.9209 38.8388 35.4131 38.6044 36.8055 38.0644C38.1978 37.5243 39.4578 36.6913 40.5001 35.6218C41.0307 35.0841 41.422 34.425 41.6401 33.7018C41.6401 33.5518 41.6401 33.6518 41.6401 33.8818C41.7321 34.816 41.9788 35.7284 42.3701 36.5818C42.6722 37.0778 43.0619 37.5149 43.5201 37.8718C45.2701 39.1918 47.8601 38.9918 48.0501 38.2218C48.0555 38.1887 48.0555 38.1549 48.0501 38.1218C48.0501 36.9818 48.0501 35.7818 48.0501 35.7918C47.3661 36.1631 46.576 36.2901 45.8101 36.1518C45.3032 36.0018 44.8616 35.6854 44.5568 35.2535C44.252 34.8216 44.1016 34.2996 44.1301 33.7718C44.1301 32.7718 44.1301 31.9518 44.1301 31.2618V25.7618C44.1301 25.5318 44.1301 25.3218 44.1301 25.1018C45.2701 25.1018 65.3301 24.9318 79.9501 24.9918C79.9501 21.3018 79.9501 23.9918 79.9501 22.0918L80.0001 22.0818ZM39.5201 33.8018C39.076 34.3033 38.5644 34.7408 38.0001 35.1018C35.5501 36.7518 31.7901 37.1018 29.4901 34.8018C28.7738 34.1498 28.2806 33.2893 28.0801 32.3418C27.8886 31.2156 28.0676 30.0576 28.5901 29.0418C30.2401 25.6418 34.9201 25.2618 37.9601 25.0418C39.0918 24.957 40.2283 24.957 41.3601 25.0418H41.7801C41.7801 26.2518 41.7801 27.6118 41.6801 29.2618C41.4396 30.9767 40.6706 32.5741 39.4801 33.8318L39.5201 33.8018Z" fill="#5454A0"/>
<path d="M71.5404 16.8716C71.5741 16.6776 71.565 16.4786 71.5138 16.2885C71.4625 16.0984 71.3703 15.9218 71.2436 15.7711C71.1168 15.6205 70.9587 15.4993 70.7802 15.4162C70.6017 15.3331 70.4072 15.29 70.2104 15.29C70.0135 15.29 69.819 15.3331 69.6405 15.4162C69.462 15.4993 69.3039 15.6205 69.1771 15.7711C69.0504 15.9218 68.9582 16.0984 68.9069 16.2885C68.8557 16.4786 68.8466 16.6776 68.8803 16.8716C68.8777 17.098 68.9206 17.3227 69.0065 17.5323C69.0924 17.7419 69.2195 17.9321 69.3803 18.0916V20.2116H71.0504V18.0916C71.2099 17.9316 71.3355 17.7411 71.4196 17.5315C71.5038 17.3219 71.5449 17.0974 71.5404 16.8716Z" fill="#5454A0"/>
</svg>
